<svg width="260" height="263" viewBox="0 0 260 263" fill="none" xmlns="http://www.w3.org/2000/svg">
<rect x="1" y="156.896" width="130.432" height="130.432" transform="rotate(-35.6334 1 156.896)" fill="#17A2B8"/>
<circle cx="49.3438" cy="109.344" r="48.3438" fill="white"/>
<circle cx="49.3438" cy="109.344" r="48.3438" stroke="#17A2B8"/>
<rect x="189.549" width="30.5732" height="109" fill="#68F351"/>
<rect x="260" y="38.5488" width="30.5732" height="109" transform="rotate(90 260 38.5488)" fill="#68F351"/>
<path d="M127.174 156V120.453H139.625C143.938 120.453 147.21 121.283 149.439 122.943C151.669 124.587 152.784 127.004 152.784 130.194C152.784 131.936 152.337 133.474 151.441 134.809C150.546 136.127 149.301 137.095 147.706 137.714C149.529 138.17 150.961 139.089 152.003 140.473C153.061 141.856 153.59 143.549 153.59 145.551C153.59 148.969 152.499 151.557 150.318 153.314C148.137 155.072 145.029 155.967 140.992 156H127.174ZM134.498 140.521V150.116H140.772C142.498 150.116 143.84 149.709 144.801 148.896C145.777 148.065 146.266 146.926 146.266 145.478C146.266 142.222 144.581 140.57 141.212 140.521H134.498ZM134.498 135.346H139.918C143.613 135.281 145.46 133.808 145.46 130.927C145.46 129.315 144.988 128.16 144.044 127.46C143.116 126.744 141.643 126.386 139.625 126.386H134.498V135.346ZM174.464 153.314C172.722 155.43 170.313 156.488 167.237 156.488C164.405 156.488 162.241 155.674 160.743 154.047C159.262 152.419 158.505 150.035 158.473 146.894V129.584H165.528V146.649C165.528 149.4 166.782 150.775 169.288 150.775C171.681 150.775 173.325 149.945 174.22 148.285V129.584H181.3V156H174.659L174.464 153.314ZM196.485 146.015L201.368 129.584H208.937L198.316 160.102L197.73 161.493C196.152 164.944 193.548 166.669 189.918 166.669C188.893 166.669 187.851 166.514 186.793 166.205V160.858L187.867 160.883C189.202 160.883 190.195 160.679 190.846 160.272C191.513 159.866 192.034 159.19 192.408 158.246L193.238 156.073L183.985 129.584H191.578L196.485 146.015ZM148.561 199.595H134.498V209.116H151.002V215H127.174V179.453H150.953V185.386H134.498V193.857H148.561V199.595ZM170.143 215C169.817 214.365 169.581 213.576 169.435 212.632C167.726 214.536 165.504 215.488 162.77 215.488C160.182 215.488 158.033 214.74 156.324 213.242C154.632 211.745 153.785 209.857 153.785 207.578C153.785 204.779 154.819 202.63 156.886 201.133C158.969 199.635 161.972 198.879 165.895 198.862H169.142V197.349C169.142 196.128 168.824 195.151 168.189 194.419C167.571 193.687 166.586 193.32 165.235 193.32C164.047 193.32 163.111 193.605 162.428 194.175C161.76 194.744 161.427 195.526 161.427 196.519H154.371C154.371 194.989 154.843 193.573 155.787 192.271C156.731 190.968 158.066 189.951 159.791 189.219C161.516 188.47 163.453 188.096 165.602 188.096C168.857 188.096 171.437 188.918 173.341 190.562C175.261 192.189 176.222 194.484 176.222 197.446V208.896C176.238 211.403 176.588 213.299 177.271 214.585V215H170.143ZM164.308 210.093C165.349 210.093 166.31 209.865 167.188 209.409C168.067 208.937 168.718 208.311 169.142 207.529V202.988H166.505C162.973 202.988 161.093 204.209 160.865 206.65L160.841 207.065C160.841 207.944 161.15 208.669 161.769 209.238C162.387 209.808 163.233 210.093 164.308 210.093ZM195.948 207.7C195.948 206.838 195.517 206.162 194.654 205.674C193.808 205.169 192.441 204.722 190.553 204.331C184.27 203.013 181.129 200.343 181.129 196.323C181.129 193.979 182.097 192.026 184.034 190.464C185.987 188.885 188.535 188.096 191.676 188.096C195.029 188.096 197.706 188.885 199.708 190.464C201.726 192.043 202.735 194.093 202.735 196.616H195.68C195.68 195.607 195.354 194.777 194.703 194.126C194.052 193.459 193.035 193.125 191.651 193.125C190.463 193.125 189.544 193.394 188.893 193.931C188.242 194.468 187.916 195.151 187.916 195.981C187.916 196.763 188.282 197.397 189.015 197.886C189.763 198.358 191.017 198.773 192.774 199.131C194.532 199.473 196.013 199.863 197.218 200.303C200.945 201.67 202.809 204.038 202.809 207.407C202.809 209.816 201.775 211.769 199.708 213.267C197.641 214.748 194.972 215.488 191.7 215.488C189.487 215.488 187.517 215.098 185.792 214.316C184.083 213.519 182.74 212.437 181.764 211.069C180.787 209.686 180.299 208.197 180.299 206.602H186.988C187.053 207.855 187.517 208.815 188.38 209.482C189.243 210.15 190.398 210.483 191.847 210.483C193.198 210.483 194.215 210.231 194.898 209.727C195.598 209.206 195.948 208.53 195.948 207.7ZM217.237 205.015L222.12 188.584H229.688L219.068 219.102L218.482 220.493C216.904 223.944 214.299 225.669 210.67 225.669C209.645 225.669 208.603 225.514 207.545 225.205V219.858L208.619 219.883C209.954 219.883 210.947 219.679 211.598 219.272C212.265 218.866 212.786 218.19 213.16 217.246L213.99 215.073L204.737 188.584H212.33L217.237 205.015ZM228.736 211.533C228.736 210.41 229.111 209.499 229.859 208.799C230.624 208.099 231.576 207.749 232.716 207.749C233.871 207.749 234.824 208.099 235.572 208.799C236.337 209.499 236.72 210.41 236.72 211.533C236.72 212.64 236.345 213.543 235.597 214.243C234.848 214.927 233.888 215.269 232.716 215.269C231.56 215.269 230.608 214.927 229.859 214.243C229.111 213.543 228.736 212.64 228.736 211.533Z" fill="#2B2B2B"/>
</svg>
