<svg width="105" height="74" viewBox="0 0 105 74" fill="none" xmlns="http://www.w3.org/2000/svg">
<rect y="35.1465" width="47.8044" height="47.8044" transform="rotate(-35.6334 0 35.1465)" fill="#17A2B8"/>
<circle cx="17.7183" cy="17.7183" r="17.7183" fill="#FFE600"/>
<circle cx="17.7183" cy="17.7183" r="17.2183" stroke="#17A2B8"/>
<path d="M50.5234 31V13.9375H56.5C58.5703 13.9375 60.1406 14.3359 61.2109 15.1328C62.2812 15.9219 62.8164 17.082 62.8164 18.6133C62.8164 19.4492 62.6016 20.1875 62.1719 20.8281C61.7422 21.4609 61.1445 21.9258 60.3789 22.2227C61.2539 22.4414 61.9414 22.8828 62.4414 23.5469C62.9492 24.2109 63.2031 25.0234 63.2031 25.9844C63.2031 27.625 62.6797 28.8672 61.6328 29.7109C60.5859 30.5547 59.0938 30.9844 57.1562 31H50.5234ZM54.0391 23.5703V28.1758H57.0508C57.8789 28.1758 58.5234 27.9805 58.9844 27.5898C59.4531 27.1914 59.6875 26.6445 59.6875 25.9492C59.6875 24.3867 58.8789 23.5938 57.2617 23.5703H54.0391ZM54.0391 21.0859H56.6406C58.4141 21.0547 59.3008 20.3477 59.3008 18.9648C59.3008 18.1914 59.0742 17.6367 58.6211 17.3008C58.1758 16.957 57.4688 16.7852 56.5 16.7852H54.0391V21.0859ZM73.2227 29.7109C72.3867 30.7266 71.2305 31.2344 69.7539 31.2344C68.3945 31.2344 67.3555 30.8438 66.6367 30.0625C65.9258 29.2812 65.5625 28.1367 65.5469 26.6289V18.3203H68.9336V26.5117C68.9336 27.832 69.5352 28.4922 70.7383 28.4922C71.8867 28.4922 72.6758 28.0938 73.1055 27.2969V18.3203H76.5039V31H73.3164L73.2227 29.7109ZM83.793 26.207L86.1367 18.3203H89.7695L84.6719 32.9688L84.3906 33.6367C83.6328 35.293 82.3828 36.1211 80.6406 36.1211C80.1484 36.1211 79.6484 36.0469 79.1406 35.8984V33.332L79.6562 33.3438C80.2969 33.3438 80.7734 33.2461 81.0859 33.0508C81.4062 32.8555 81.6562 32.5312 81.8359 32.0781L82.2344 31.0352L77.793 18.3203H81.4375L83.793 26.207ZM60.7891 51.6055H54.0391V56.1758H61.9609V59H50.5234V41.9375H61.9375V44.7852H54.0391V48.8516H60.7891V51.6055ZM71.1484 59C70.9922 58.6953 70.8789 58.3164 70.8086 57.8633C69.9883 58.7773 68.9219 59.2344 67.6094 59.2344C66.3672 59.2344 65.3359 58.875 64.5156 58.1562C63.7031 57.4375 63.2969 56.5312 63.2969 55.4375C63.2969 54.0938 63.793 53.0625 64.7852 52.3438C65.7852 51.625 67.2266 51.2617 69.1094 51.2539H70.668V50.5273C70.668 49.9414 70.5156 49.4727 70.2109 49.1211C69.9141 48.7695 69.4414 48.5938 68.793 48.5938C68.2227 48.5938 67.7734 48.7305 67.4453 49.0039C67.125 49.2773 66.9648 49.6523 66.9648 50.1289H63.5781C63.5781 49.3945 63.8047 48.7148 64.2578 48.0898C64.7109 47.4648 65.3516 46.9766 66.1797 46.625C67.0078 46.2656 67.9375 46.0859 68.9688 46.0859C70.5312 46.0859 71.7695 46.4805 72.6836 47.2695C73.6055 48.0508 74.0664 49.1523 74.0664 50.5742V56.0703C74.0742 57.2734 74.2422 58.1836 74.5703 58.8008V59H71.1484ZM68.3477 56.6445C68.8477 56.6445 69.3086 56.5352 69.7305 56.3164C70.1523 56.0898 70.4648 55.7891 70.668 55.4141V53.2344H69.4023C67.707 53.2344 66.8047 53.8203 66.6953 54.9922L66.6836 55.1914C66.6836 55.6133 66.832 55.9609 67.1289 56.2344C67.4258 56.5078 67.832 56.6445 68.3477 56.6445ZM83.5352 55.4961C83.5352 55.082 83.3281 54.7578 82.9141 54.5234C82.5078 54.2812 81.8516 54.0664 80.9453 53.8789C77.9297 53.2461 76.4219 51.9648 76.4219 50.0352C76.4219 48.9102 76.8867 47.9727 77.8164 47.2227C78.7539 46.4648 79.9766 46.0859 81.4844 46.0859C83.0938 46.0859 84.3789 46.4648 85.3398 47.2227C86.3086 47.9805 86.793 48.9648 86.793 50.1758H83.4062C83.4062 49.6914 83.25 49.293 82.9375 48.9805C82.625 48.6602 82.1367 48.5 81.4727 48.5C80.9023 48.5 80.4609 48.6289 80.1484 48.8867C79.8359 49.1445 79.6797 49.4727 79.6797 49.8711C79.6797 50.2461 79.8555 50.5508 80.207 50.7852C80.5664 51.0117 81.168 51.2109 82.0117 51.3828C82.8555 51.5469 83.5664 51.7344 84.1445 51.9453C85.9336 52.6016 86.8281 53.7383 86.8281 55.3555C86.8281 56.5117 86.332 57.4492 85.3398 58.168C84.3477 58.8789 83.0664 59.2344 81.4961 59.2344C80.4336 59.2344 79.4883 59.0469 78.6602 58.6719C77.8398 58.2891 77.1953 57.7695 76.7266 57.1133C76.2578 56.4492 76.0234 55.7344 76.0234 54.9688H79.2344C79.2656 55.5703 79.4883 56.0312 79.9023 56.3516C80.3164 56.6719 80.8711 56.832 81.5664 56.832C82.2148 56.832 82.7031 56.7109 83.0312 56.4688C83.3672 56.2188 83.5352 55.8945 83.5352 55.4961ZM93.7539 54.207L96.0977 46.3203H99.7305L94.6328 60.9688L94.3516 61.6367C93.5938 63.293 92.3438 64.1211 90.6016 64.1211C90.1094 64.1211 89.6094 64.0469 89.1016 63.8984V61.332L89.6172 61.3438C90.2578 61.3438 90.7344 61.2461 91.0469 61.0508C91.3672 60.8555 91.6172 60.5312 91.7969 60.0781L92.1953 59.0352L87.7539 46.3203H91.3984L93.7539 54.207ZM99.2734 57.3359C99.2734 56.7969 99.4531 56.3594 99.8125 56.0234C100.18 55.6875 100.637 55.5195 101.184 55.5195C101.738 55.5195 102.195 55.6875 102.555 56.0234C102.922 56.3594 103.105 56.7969 103.105 57.3359C103.105 57.8672 102.926 58.3008 102.566 58.6367C102.207 58.9648 101.746 59.1289 101.184 59.1289C100.629 59.1289 100.172 58.9648 99.8125 58.6367C99.4531 58.3008 99.2734 57.8672 99.2734 57.3359Z" fill="#2B2B2B"/>
</svg>
